<?xml version="1.0" standalone="no"?>
<!DOCTYPE svg PUBLIC "-//W3C//DTD SVG 20010904//EN"
 "http://www.w3.org/TR/2001/REC-SVG-20010904/DTD/svg10.dtd">
<svg version="1.0" xmlns="http://www.w3.org/2000/svg"
 width="768.000000pt" height="768.000000pt" viewBox="0 0 768.000000 768.000000"
 preserveAspectRatio="xMidYMid meet">

<g transform="translate(0.000000,768.000000) scale(0.100000,-0.100000)"
fill="#000000" stroke="none">
<path d="M3655 6924 c-16 -2 -73 -9 -125 -15 -103 -11 -367 -62 -440 -84 -276
-85 -388 -128 -573 -221 -512 -257 -933 -641 -1235 -1124 -75 -120 -142 -244
-142 -262 0 -8 60 -60 132 -115 234 -178 448 -341 481 -367 106 -83 392 -299
402 -302 7 -3 23 25 40 68 159 413 477 767 870 968 189 97 367 153 588 186
164 24 469 15 623 -19 267 -60 489 -159 702 -314 l72 -53 445 443 c245 244
445 446 445 449 0 13 -211 175 -329 252 -400 264 -803 419 -1284 492 -97 14
-599 28 -672 18z"/>
<path d="M3960 4380 c-41 -6 -39 -7 28 -8 42 -1 72 2 72 8 0 11 -30 11 -100 0z"/>
<path d="M4160 4380 c0 -6 33 -9 83 -9 77 2 79 2 32 9 -72 12 -115 11 -115 0z"/>
<path d="M4470 4380 c-68 -5 -71 -6 -30 -11 36 -4 27 -6 -40 -9 l-85 -3 85
-11 c80 -11 71 -12 -160 -13 -135 -1 -240 1 -234 3 6 3 63 9 125 13 l114 9
-137 -1 c-129 -2 -161 -7 -144 -24 4 -5 628 -9 1386 -9 1099 -1 1380 1 1384
11 3 8 15 10 33 7 l28 -6 -25 -7 -25 -7 28 -1 c23 -1 27 3 27 25 0 16 -4 23
-11 18 -6 -3 -61 -6 -122 -6 l-112 0 85 -12 c83 -12 80 -12 -120 -12 -199 0
-202 0 -120 12 l85 11 -125 1 c-84 0 -118 -2 -102 -8 12 -5 22 -11 22 -13 0
-2 -108 -4 -240 -4 -132 0 -240 2 -240 4 0 2 10 8 23 13 15 6 -19 8 -103 8
l-125 -1 85 -12 c82 -11 76 -12 -130 -11 -220 1 -263 7 -219 32 l24 13 -25 2
c-73 4 -796 3 -860 -1z m810 -25 c0 -22 -182 -32 -344 -19 -49 5 -75 11 -73
18 2 7 61 13 168 16 194 6 249 3 249 -15z m-464 4 c14 -24 -24 -30 -151 -24
-71 3 -141 9 -155 13 -22 6 -21 7 15 13 73 11 283 10 291 -2z"/>
<path d="M5032 4347 c51 -6 94 -6 125 1 42 8 31 10 -77 9 l-125 0 77 -10z"/>
<path d="M4685 4350 c72 -12 115 -11 115 0 0 6 -33 9 -82 9 -78 -2 -80 -2 -33
-9z"/>
<path d="M5400 4379 c-25 -3 270 -7 654 -7 385 -1 696 1 692 5 -9 9 -1282 11
-1346 2z"/>
<path d="M6765 4380 c3 -5 8 -10 11 -10 2 0 4 5 4 10 0 6 -5 10 -11 10 -5 0
-7 -4 -4 -10z"/>
<path d="M5360 4350 c0 -11 43 -12 115 0 47 7 45 7 -32 9 -50 0 -83 -3 -83 -9z"/>
<path d="M5978 4349 c36 -6 88 -6 125 0 56 8 51 9 -63 9 -114 0 -119 -1 -62
-9z"/>
<path d="M3925 4340 c-3 -5 -1 -10 4 -10 6 0 11 5 11 10 0 6 -2 10 -4 10 -3 0
-8 -4 -11 -10z"/>
<path d="M3921 3794 c1 -480 3 -525 18 -522 18 4 30 88 12 88 -6 0 -11 18 -11
40 0 22 5 40 10 40 6 0 10 47 10 120 0 73 -4 120 -10 120 -6 0 -10 33 -10 80
0 47 4 80 10 80 6 0 10 18 10 40 0 22 -4 40 -10 40 -6 0 -10 33 -10 80 0 47 4
80 10 80 6 0 10 33 10 80 0 47 -4 80 -10 80 -5 0 -10 18 -10 40 0 22 -5 40
-10 40 -7 0 -10 -170 -9 -526z"/>
<path d="M6804 4202 c1 -42 5 -83 9 -89 5 -8 4 -13 -2 -13 -6 0 -11 -9 -11
-20 0 -24 6 -25 26 -6 18 19 18 54 -2 91 -10 19 -13 42 -9 66 4 20 2 40 -3 43
-6 3 -9 -25 -8 -72z"/>
<path d="M3993 4160 c0 -47 2 -66 4 -42 2 23 2 61 0 85 -2 23 -4 4 -4 -43z"/>
<path d="M6840 4051 c0 -5 -8 -11 -18 -13 -15 -4 -18 -20 -20 -128 -2 -91 1
-126 10 -132 10 -6 10 -10 0 -16 -9 -6 -11 -46 -10 -153 1 -79 5 -130 9 -114
7 30 7 30 8 3 0 -15 -3 -29 -8 -32 -4 -3 -8 -36 -9 -73 -1 -75 3 -74 13 2 6
41 9 46 16 30 6 -13 8 -1 5 38 -3 31 -1 55 4 52 4 -3 8 34 7 83 -1 48 2 105 6
127 3 22 4 31 1 20 -13 -46 -26 -39 -19 10 8 56 16 305 9 305 -2 0 -4 -4 -4
-9z m-1 -53 c0 -31 -1 -31 -10 -10 -5 13 -7 28 -3 33 10 16 14 9 13 -23z m-12
-70 c-3 -7 -5 -2 -5 12 0 14 2 19 5 13 2 -7 2 -19 0 -25z m1 -119 c-3 -8 -7
-3 -11 10 -4 17 -3 21 5 13 5 -5 8 -16 6 -23z m-4 -119 c4 -25 3 -31 -4 -20
-5 8 -10 26 -10 39 0 32 6 24 14 -19z m5 -76 c1 11 3 17 5 15 3 -3 1 -27 -3
-54 -5 -28 -9 -38 -10 -24 0 15 -3 42 -6 60 -4 29 -3 30 4 9 7 -20 9 -21 10
-6z"/>
<path d="M3993 3880 c0 -25 2 -35 4 -22 2 12 2 32 0 45 -2 12 -4 2 -4 -23z"/>
<path d="M3986 3563 c4 -65 8 -120 10 -122 2 -2 4 50 4 117 0 75 -4 122 -10
122 -7 0 -8 -41 -4 -117z"/>
<path d="M6822 3370 c0 -19 2 -27 5 -17 2 9 2 25 0 35 -3 9 -5 1 -5 -18z"/>
<path d="M3990 3318 l-5 -48 770 2 770 3 -762 2 -762 3 -3 43 -3 42 -5 -47z"/>
<path d="M6805 3295 c4 -38 15 -43 15 -7 0 18 -4 32 -9 32 -5 0 -8 -11 -6 -25z"/>
<path d="M5530 3269 c0 -4 8 -9 18 -11 9 -2 -43 -2 -116 0 -92 3 -137 1 -145
-7 -6 -6 -29 -10 -51 -9 l-41 1 45 7 c25 4 -98 7 -272 8 -184 0 -320 -3 -323
-9 -4 -5 -25 -8 -48 -7 l-42 1 45 7 c25 4 -118 7 -317 8 -315 2 -363 0 -363
-13 0 -12 22 -15 123 -17 l122 -2 -125 -6 c-69 -3 248 -7 704 -8 456 -1 831
-4 834 -7 10 -10 21 -5 17 8 -4 9 -155 12 -718 10 -391 -1 -706 0 -699 3 6 3
10 10 6 15 -3 5 10 9 28 9 25 0 29 -3 18 -10 -10 -6 30 -9 120 -8 92 1 121 3
90 8 l-45 7 42 1 c23 1 45 -2 48 -8 4 -6 107 -10 275 -10 168 0 271 4 275 10
8 13 78 13 92 -1 7 -7 77 -9 224 -5 235 6 249 7 249 18 0 4 -8 8 -17 8 -13 0
-15 2 -5 8 8 6 2 9 -18 9 -16 0 -30 -4 -30 -8z m-1387 -26 c-13 -2 -33 -2 -45
0 -13 2 -3 4 22 4 25 0 35 -2 23 -4z m640 0 c-13 -2 -33 -2 -45 0 -13 2 -3 4
22 4 25 0 35 -2 23 -4z m160 0 c-13 -2 -33 -2 -45 0 -13 2 -3 4 22 4 25 0 35
-2 23 -4z m480 0 c-13 -2 -33 -2 -45 0 -13 2 -3 4 22 4 25 0 35 -2 23 -4z"/>
<path d="M6802 3230 c0 -14 2 -19 5 -12 2 6 2 18 0 25 -3 6 -5 1 -5 -13z"/>
<path d="M5058 3233 c12 -2 32 -2 45 0 12 2 2 4 -23 4 -25 0 -35 -2 -22 -4z"/>
<path d="M6720 3180 c0 -11 4 -20 9 -20 16 0 30 -103 20 -154 -5 -27 -11 -51
-12 -53 -2 -2 -3 35 -1 80 1 46 -1 89 -5 95 -4 6 -8 -36 -9 -94 -1 -67 2 -103
8 -99 6 3 10 0 10 -9 0 -8 -4 -16 -10 -18 -5 -2 -6 -9 -1 -17 6 -9 14 12 24
60 23 104 30 160 18 134 -8 -16 -9 -13 -6 15 2 19 4 38 4 43 1 4 8 7 16 7 24
0 17 26 -10 38 -38 17 -55 15 -55 -8z"/>
<path d="M5580 3180 c0 -5 5 -10 10 -10 6 0 10 5 10 10 0 6 -4 10 -10 10 -5 0
-10 -4 -10 -10z"/>
<path d="M5560 3103 c-6 -27 -19 -64 -27 -85 -8 -20 -16 -58 -17 -84 -1 -39 2
-49 17 -52 13 -3 17 4 17 31 0 20 3 43 6 52 10 25 24 -2 24 -47 0 -21 4 -38
10 -38 6 0 9 30 8 73 -2 39 -4 64 -6 54 -2 -9 -7 -15 -12 -12 -10 6 -1 45 10
45 4 0 7 25 7 55 -1 69 -20 73 -37 8z m23 -15 c-3 -18 -10 -37 -14 -42 -5 -6
-9 -19 -9 -31 0 -12 -7 -30 -15 -41 -13 -17 -14 -17 -15 -1 0 9 4 17 8 17 5 0
15 29 22 65 13 65 35 95 23 33z"/>
<path d="M5483 2903 c-3 -10 -12 -32 -18 -49 -7 -17 -9 -37 -5 -43 4 -8 10 5
14 30 7 42 19 44 29 4 3 -11 5 -6 4 12 -1 17 -5 29 -10 26 -5 -3 -6 4 -2 16 8
25 -3 29 -12 4z"/>
<path d="M6640 2870 c0 -5 4 -10 9 -10 6 0 13 5 16 10 3 6 -1 10 -9 10 -9 0
-16 -4 -16 -10z"/>
<path d="M6694 2863 c-4 -10 -16 -28 -27 -41 -16 -17 -22 -39 -24 -97 -3 -79
-16 -125 -33 -125 -8 0 -8 6 0 20 9 16 8 20 -5 20 -8 0 -15 -5 -15 -11 0 -8
-5 -8 -15 1 -13 10 -15 9 -15 -8 0 -12 5 -24 10 -27 7 -5 8 -11 1 -18 -6 -8
-4 -19 6 -32 15 -19 15 -19 9 7 -3 15 -2 29 3 32 5 3 11 -9 15 -27 4 -19 2
-33 -4 -35 -5 -2 -10 -10 -10 -17 0 -8 -5 -17 -11 -21 -7 -4 -9 0 -5 12 3 11
1 26 -4 34 -6 10 -9 -6 -9 -48 0 -34 4 -60 9 -57 4 3 6 15 3 28 -4 18 -3 20 7
7 10 -13 11 -13 6 3 -3 9 -2 17 3 17 12 0 34 57 27 68 -3 5 3 21 14 35 12 15
17 32 13 43 -4 10 -2 15 3 11 6 -4 9 7 6 26 -2 22 -1 28 6 18 7 -10 11 -10 17
-1 4 7 3 15 -2 19 -5 3 -12 22 -16 41 l-6 35 15 -32 c8 -18 17 -33 20 -33 3 0
3 4 0 9 -3 5 1 23 10 40 9 18 13 35 10 38 -3 4 -6 0 -6 -8 0 -11 -2 -11 -10 1
-16 24 -12 38 13 42 14 2 22 10 22 22 0 26 -23 32 -31 9z m-4 -100 c0 -7 -4
-13 -10 -13 -5 0 -10 12 -10 28 0 21 2 24 10 12 5 -8 10 -21 10 -27z"/>
<path d="M5480 2821 c0 -5 5 -13 10 -16 6 -3 10 -2 10 4 0 5 -4 13 -10 16 -5
3 -10 2 -10 -4z"/>
<path d="M5424 2779 c-9 -19 -11 -28 -4 -24 8 5 11 3 8 -6 -3 -8 -11 -14 -18
-14 -7 0 -15 -6 -18 -14 -3 -10 2 -11 19 -6 18 5 20 4 9 -4 -8 -5 -11 -13 -7
-18 13 -13 28 20 23 52 -2 17 1 38 6 48 5 9 6 17 4 17 -3 0 -13 -14 -22 -31z"/>
<path d="M5380 2693 c0 -10 24 -34 45 -46 6 -3 11 3 11 13 0 10 -4 16 -9 13
-4 -3 -17 3 -28 13 -10 9 -19 13 -19 7z"/>
<path d="M5326 2626 c-35 -50 -52 -90 -21 -50 13 17 14 17 15 2 0 -26 40 -24
40 1 0 11 -5 23 -11 27 -8 4 -9 -1 -4 -17 7 -22 7 -23 -11 -5 -17 18 -17 19 4
37 13 10 23 20 22 23 0 4 0 8 0 11 0 3 9 1 20 -5 16 -8 18 -8 14 4 -12 32 -33
23 -68 -28z"/>
<path d="M5240 2515 c-19 -19 -29 -35 -22 -35 7 0 12 5 12 10 0 6 5 10 11 10
5 0 7 -4 4 -10 -3 -5 -1 -10 4 -10 6 0 11 10 12 23 1 21 1 21 9 -3 7 -22 8
-20 7 13 -1 20 -2 37 -2 37 -1 0 -16 -16 -35 -35z"/>
<path d="M5166 2443 c-23 -20 -26 -27 -15 -34 8 -5 19 -9 24 -9 6 0 4 4 -3 8
-9 6 -7 14 9 31 29 31 20 34 -15 4z"/>
<path d="M5191 2414 c0 -11 3 -14 6 -6 3 7 2 16 -1 19 -3 4 -6 -2 -5 -13z"/>
<path d="M5077 2367 c-21 -18 -35 -36 -31 -40 11 -11 62 -8 69 3 9 14 -4 32
-17 24 -7 -4 -6 -9 2 -14 6 -4 -4 -7 -22 -7 -18 -1 -27 2 -19 5 19 7 73 64 59
62 -2 -1 -20 -15 -41 -33z"/>
<path d="M6482 2380 c0 -14 2 -19 5 -12 2 6 2 18 0 25 -3 6 -5 1 -5 -13z"/>
<path d="M6499 2368 c-16 -43 -20 -80 -8 -73 13 9 11 -9 -3 -23 -6 -6 -9 -14
-6 -17 6 -6 52 87 61 125 6 22 5 22 -5 -2 -15 -35 -31 -37 -18 -3 5 14 6 25 1
25 -5 0 -15 -15 -22 -32z"/>
<path d="M5017 2313 c10 -3 10 -8 -1 -19 -17 -16 -30 -19 -21 -4 9 15 -8 12
-31 -5 -19 -14 -19 -14 3 -15 23 0 43 -20 21 -21 -7 0 -2 -5 12 -11 14 -6 28
-10 33 -10 4 1 7 -4 7 -11 0 -8 12 -20 27 -28 14 -8 41 -29 60 -46 22 -22 38
-30 50 -26 12 5 14 3 8 -7 -6 -9 -4 -11 5 -5 8 5 11 3 8 -6 -4 -13 63 -72 78
-69 3 1 25 -16 48 -37 49 -47 167 -135 173 -130 2 3 -2 16 -8 31 -7 15 -15 22
-18 17 -14 -22 -33 8 -33 49 1 29 -2 40 -9 33 -7 -7 -20 -7 -39 0 -23 9 -30
18 -32 47 -3 35 -4 35 -51 36 -39 1 -45 -1 -36 -12 8 -10 8 -14 1 -14 -21 0
-24 21 -6 41 17 18 16 19 -23 19 -28 0 -45 6 -59 22 -17 19 -17 21 -1 15 9 -4
17 -2 17 3 0 5 -19 8 -42 7 l-42 -2 -1 40 c0 38 -3 41 -35 37 -16 -3 -11 -22
6 -22 8 0 12 -5 8 -11 -4 -7 -16 -1 -33 15 -22 21 -27 34 -25 66 1 32 -2 40
-15 39 -10 0 -11 -2 -4 -6z m13 -53 c0 -5 -2 -10 -4 -10 -3 0 -8 5 -11 10 -3
6 -1 10 4 10 6 0 11 -4 11 -10z m306 -205 c6 -5 9 -16 6 -23 -4 -11 -6 -11
-13 0 -5 7 -14 13 -20 13 -7 0 -14 6 -17 13 -5 15 26 13 44 -3z"/>
<path d="M6410 2230 c-15 -9 -6 -66 9 -62 7 1 10 -2 7 -6 -3 -5 -17 -7 -31 -4
-18 3 -33 -3 -50 -21 -22 -21 -25 -32 -21 -74 5 -55 -17 -101 -34 -73 -5 8
-10 10 -10 4 0 -7 -7 -14 -14 -17 -10 -4 -13 -1 -9 9 3 7 0 14 -6 14 -6 0 -10
-16 -9 -35 1 -41 10 -44 28 -10 7 13 18 22 23 18 6 -4 4 -10 -5 -17 -8 -6 -17
-18 -20 -27 -5 -13 -17 -16 -50 -13 -24 2 -36 1 -28 -2 37 -16 40 -25 17 -59
-12 -18 -25 -31 -29 -29 -5 3 -1 12 7 20 8 9 15 25 15 37 -1 21 -1 21 -15 4
-13 -18 -14 -17 -19 5 -2 13 -3 0 -1 -29 2 -36 -1 -53 -10 -57 -7 -2 -16 -18
-20 -35 -4 -17 -16 -36 -28 -43 -20 -10 -21 -10 -8 6 8 9 11 20 7 23 -10 10
-26 -19 -21 -37 8 -25 -13 -45 -47 -45 -29 0 -33 -3 -35 -32 -2 -18 1 -33 6
-33 18 0 161 166 161 188 0 7 3 11 8 9 4 -3 13 1 20 9 7 8 10 14 6 14 -4 0 5
11 19 24 18 16 25 31 21 43 -4 14 -4 15 4 4 7 -10 24 8 71 78 33 50 61 98 61
106 0 8 4 15 9 15 6 0 66 89 87 131 4 8 -53 7 -66 -1z m31 -37 c-6 -11 -11
-13 -11 -5 0 7 -4 10 -10 7 -5 -3 -10 -2 -10 4 0 16 18 22 23 9 3 -7 6 -4 7 7
1 11 4 15 6 8 3 -7 1 -20 -5 -30z m-41 -63 c0 -5 -4 -10 -9 -10 -13 0 -41 -29
-41 -41 0 -6 4 -7 10 -4 5 3 7 0 4 -9 -4 -12 -9 -12 -18 -3 -17 15 -16 37 3
58 17 19 51 25 51 9z m-55 -90 c3 -5 1 -10 -4 -10 -6 0 -11 5 -11 10 0 6 2 10
4 10 3 0 8 -4 11 -10z m-307 -378 c9 -7 8 -13 -8 -27 -11 -10 -20 -13 -20 -7
0 7 5 12 10 12 6 0 10 5 10 11 0 5 -4 7 -10 4 -5 -3 -10 -1 -10 4 0 13 10 14
28 3z"/>
<path d="M5215 2150 c-3 -5 0 -10 7 -10 7 0 23 -3 36 -6 16 -5 22 -2 22 10 0
18 -54 23 -65 6z"/>
<path d="M5495 1910 c3 -5 10 -10 16 -10 5 0 9 5 9 10 0 6 -7 10 -16 10 -8 0
-12 -4 -9 -10z"/>
<path d="M5511 1854 c-1 -17 47 -46 54 -34 3 6 12 10 18 10 8 0 7 -4 -2 -9
-12 -8 -13 -12 -1 -26 7 -9 16 -12 19 -7 3 4 14 0 24 -10 10 -11 12 -18 5 -18
-6 0 -3 -7 8 -15 23 -18 38 -19 28 -3 -5 7 -7 27 -5 45 2 31 1 33 -31 34 l-33
1 30 8 c23 6 15 8 -37 9 -43 1 -68 5 -71 14 -4 7 -6 8 -6 1z"/>
<path d="M5665 1830 c3 -5 8 -10 11 -10 2 0 4 5 4 10 0 6 -5 10 -11 10 -5 0
-7 -4 -4 -10z"/>
<path d="M6080 1814 c0 -28 15 -25 23 6 3 13 0 20 -9 20 -8 0 -14 -10 -14 -26z"/>
<path d="M5669 1782 c-3 -17 -3 -35 0 -38 3 -3 6 -9 6 -14 0 -13 76 -70 86
-64 5 3 13 -6 18 -19 5 -13 21 -31 35 -40 l26 -17 0 39 c0 26 -5 41 -16 45
-22 8 -26 8 -19 -4 4 -6 -2 -7 -17 -1 -13 4 -24 18 -26 30 -2 11 -10 21 -18
21 -9 0 -12 -5 -8 -12 4 -7 -5 -2 -19 11 -30 27 -34 36 -14 28 8 -3 20 -1 28
4 10 6 5 9 -18 9 -27 0 -32 4 -35 28 -3 26 -4 26 -9 -6z"/>
<path d="M5862 1591 c-11 -6 -6 -14 18 -31 l31 -22 25 23 c13 12 24 17 24 11
0 -7 -4 -12 -10 -12 -5 0 -15 -10 -21 -22 -10 -20 -7 -19 19 6 17 16 29 32 27
37 -3 4 1 9 7 12 7 2 -5 4 -27 3 -22 -1 -46 -5 -52 -9 -8 -5 -13 -4 -13 2 0
13 -10 14 -28 2z m60 -18 c-6 -2 -10 -9 -6 -14 3 -5 0 -9 -5 -9 -12 0 -14 13
-4 23 3 4 11 7 17 6 6 0 5 -3 -2 -6z"/>
</g>
</svg>
